<?xml version="1.0" encoding="UTF-8"?>
<svg width="28px" height="29px" viewBox="0 0 28 29" version="1.1" xmlns="http://www.w3.org/2000/svg" xmlns:xlink="http://www.w3.org/1999/xlink">
    <!-- Generator: Sketch 53.2 (72643) - https://sketchapp.com -->
    <title>Group 9</title>
    <desc>Created with Sketch.</desc>
    <g id="Design" stroke="none" stroke-width="1" fill="none" fill-rule="evenodd">
        <g id="Blog" transform="translate(-1750.000000, -301.000000)">
            <g id="Search" transform="translate(1724.000000, 270.000000)">
                <g id="Group-9" transform="translate(26.000000, 31.500000)">
                    <path d="M24.4034667,12.5352 C24.4034667,19.0898667 19.0901333,24.4032 12.5354667,24.4032 C5.9808,24.4032 0.666133333,19.0898667 0.666133333,12.5352 C0.666133333,5.98053333 5.9808,0.6672 12.5354667,0.6672 C19.0901333,0.6672 24.4034667,5.98053333 24.4034667,12.5352" id="Fill-1" fill="#FFFFFF"></path>
                    <path d="M24.3885333,14.3281333 C24.3885333,19.8988 19.8725333,24.4134667 14.3018667,24.4134667 C8.7312,24.4134667 4.2152,19.8988 4.21653333,14.3281333 C4.21653333,8.75746667 8.7312,4.24146667 14.3018667,4.24146667 C19.8725333,4.24146667 24.3885333,8.75613333 24.3885333,14.3281333" id="Fill-3" fill="#A7FFEB"></path>
                    <path d="M24.4034667,12.5352 C24.4034667,19.0898667 19.0901333,24.4032 12.5354667,24.4032 C5.9808,24.4032 0.666133333,19.0898667 0.666133333,12.5352 C0.666133333,5.98053333 5.9808,0.6672 12.5354667,0.6672 C19.0901333,0.6672 24.4034667,5.98053333 24.4034667,12.5352 Z" id="Stroke-5" stroke="#212121" stroke-linecap="round" stroke-linejoin="round"></path>
                    <path d="M27.6652,27.2188 L20.8758667,20.9734667" id="Stroke-7" stroke="#212121" stroke-linecap="round" stroke-linejoin="round"></path>
                </g>
            </g>
        </g>
    </g>
</svg>